<svg width="358" height="332" viewBox="0 0 358 332" fill="none" xmlns="http://www.w3.org/2000/svg">
<path d="M246.5 15C226.623 15 207.192 20.8942 190.665 31.9373C174.138 42.9804 161.257 58.6763 153.65 77.0403C146.044 95.4043 144.053 115.611 147.931 135.107C151.809 154.602 161.381 172.509 175.436 186.564C189.491 200.619 207.398 210.191 226.893 214.069C246.389 217.947 266.596 215.957 284.96 208.35C303.324 200.743 319.02 187.862 330.063 171.335C341.106 154.808 347 135.377 347 115.5L313.066 115.5C313.066 128.666 309.162 141.535 301.848 152.482C294.533 163.429 284.137 171.961 271.974 176.999C259.81 182.037 246.426 183.355 233.514 180.787C220.601 178.219 208.74 171.879 199.431 162.569C190.121 153.26 183.781 141.399 181.213 128.486C178.645 115.574 179.963 102.19 185.001 90.0263C190.039 77.8629 198.571 67.4667 209.518 60.1523C220.465 52.838 233.334 48.9339 246.5 48.9339L246.5 15Z" fill="#63CED5"/>
<path d="M114.268 315.37C134.143 315.095 153.49 308.933 169.863 297.662C186.236 286.392 198.899 270.519 206.252 252.052C213.604 233.585 215.315 213.352 211.168 193.912C207.021 174.473 197.203 156.699 182.955 142.84C168.707 128.98 150.669 119.657 131.122 116.049C111.575 112.441 91.3972 114.71 73.1401 122.57C54.883 130.429 39.3665 143.526 28.5529 160.204C17.7392 176.882 12.1141 196.393 12.3887 216.268L46.3194 215.799C46.1375 202.635 49.8633 189.712 57.0257 178.665C64.1882 167.619 74.4655 158.944 86.558 153.738C98.6506 148.532 112.015 147.029 124.962 149.419C137.909 151.809 149.856 157.984 159.294 167.164C168.731 176.344 175.234 188.116 177.98 200.992C180.727 213.868 179.594 227.269 174.724 239.501C169.855 251.732 161.467 262.246 150.623 269.71C139.778 277.175 126.963 281.257 113.799 281.439L114.268 315.37Z" fill="#63CED5"/>
<path d="M12.6435 222.165C14.4207 246.616 25.0743 269.575 42.5989 286.719C60.1236 303.863 83.3105 314.01 107.795 315.25L109.512 281.36C93.2944 280.539 77.9365 273.818 66.3291 262.462C54.7217 251.107 47.6653 235.9 46.4882 219.705L12.6435 222.165Z" fill="#DA77F3"/>
<path d="M346.937 108.416C345.159 83.9641 334.506 61.0054 316.981 43.8612C299.457 26.7171 276.27 16.5698 251.785 15.3296L250.068 49.2201C266.286 50.0416 281.644 56.7626 293.251 68.118C304.858 79.4734 311.915 94.6801 313.092 110.876L346.937 108.416Z" fill="#DA77F3"/>
</svg>
