<?xml version="1.0" encoding="UTF-8" standalone="no" ?>
<!DOCTYPE svg PUBLIC "-//W3C//DTD SVG 1.1//EN" "http://www.w3.org/Graphics/SVG/1.1/DTD/svg11.dtd">
<svg xmlns="http://www.w3.org/2000/svg" xmlns:xlink="http://www.w3.org/1999/xlink" version="1.1" width="640" height="640" viewBox="0 0 640 640" xml:space="preserve">
<desc>Created with Fabric.js 5.3.0</desc>
<defs>
</defs>
<g transform="matrix(1.5583186132 0 0 1.2724049154 320 349.9667287134)" id="uGrddW3jbHg48YQxOwIpX"  >
<path style="stroke: rgb(18,59,56); stroke-width: 20; stroke-dasharray: none; stroke-linecap: butt; stroke-dashoffset: 0; stroke-linejoin: miter; stroke-miterlimit: 4; fill: rgb(255,255,255); fill-opacity: 0; fill-rule: nonzero; opacity: 1;"  transform=" translate(0, 0)" d="M 0 -104.72727 L 0 104.72728000000001" stroke-linecap="round" />
</g>
<g transform="matrix(2.0904697096 0 0 0.0001558319 320 353.8364061401)" id="Bo4CxCjYc02VaLe6-oDeQ"  >
<path style="stroke: rgb(0,0,0); stroke-width: 20; stroke-dasharray: none; stroke-linecap: butt; stroke-dashoffset: 0; stroke-linejoin: miter; stroke-miterlimit: 4; fill: rgb(255,255,255); fill-opacity: 0; fill-rule: nonzero; opacity: 1;"  transform=" translate(0, 0)" d="M -83.04132 0 L 83.04132 0" stroke-linecap="round" />
</g>
<g transform="matrix(1.3050157935 0 0 1.5583186132 330.0375918712 353.8379644587)" id="0ObePSLKxwhJcPdx6wfc2"  >
<path style="stroke: rgb(18,59,56); stroke-width: 20; stroke-dasharray: none; stroke-linecap: butt; stroke-dashoffset: 0; stroke-linejoin: miter; stroke-miterlimit: 4; fill: rgb(255,255,255); fill-opacity: 0; fill-rule: nonzero; opacity: 1;"  transform=" translate(0, 0)" d="M -113.19008 0 L 113.19009 0" stroke-linecap="round" />
</g>
<g transform="matrix(1.4425453287 0 0 1.2788594502 383.9848908479 269.7972763517)" id="uRDFB84Qjur7ZAW2hDkTS"  >
<path style="stroke: rgb(132,49,114); stroke-width: 20; stroke-dasharray: none; stroke-linecap: butt; stroke-dashoffset: 0; stroke-linejoin: miter; stroke-miterlimit: 4; fill: rgb(255,255,255); fill-opacity: 0; fill-rule: nonzero; opacity: 1;"  transform=" translate(0, 0)" d="M -54.71901 -52.68824 L 23.158550000000005 -52.68824 C 40.588910000000006 -52.68824 54.71900000000001 -36.74958 54.71900000000001 -17.088250000000002 L 54.71900000000001 52.68825" stroke-linecap="round" />
</g>
<g transform="matrix(-1.5708341359 0 0 -1.5470544644 249.9963855851 420.0356921313)" id="33A92loViF7ifaisIzzOV"  >
<path style="stroke: rgb(132,49,114); stroke-width: 20; stroke-dasharray: none; stroke-linecap: butt; stroke-dashoffset: 0; stroke-linejoin: miter; stroke-miterlimit: 4; fill: rgb(255,255,255); fill-opacity: 0; fill-rule: nonzero; opacity: 1;"  transform=" translate(0, 0)" d="M -54.71901 -52.68824 L 25.736069999999998 -52.68824 C 41.7429 -52.68824 54.71901 -39.51268 54.71901 -23.25981 L 54.71901 52.68825" stroke-linecap="round" />
</g>
</svg>